<?xml version="1.0" encoding="utf-8"?>
<!-- Generator: Adobe Illustrator 25.2.0, SVG Export Plug-In . SVG Version: 6.00 Build 0)  -->
<svg version="1.1" id="Layer_1" xmlns="http://www.w3.org/2000/svg" xmlns:xlink="http://www.w3.org/1999/xlink" x="0px" y="0px"
	 viewBox="0 0 141 32" style="enable-background:new 0 0 141 32;" xml:space="preserve">
<style type="text/css">
	.st0{fill:#00539F;}
</style>
<path class="st0" d="M136.4,16.6c2.6-6.2-0.8-9.6-6.6-9.6c-4.8,0-9.8,2.3-12.9,6.6h-14.5l-1.8,3.1h6.9c-1.8,3.7-4.1,5.7-9.9,5.7
	c-4.9,0-4.3-6.2-2.7-9.9c1.6-3.7,6.6-8.1,11.5-8.1c4.6,0.1,4.5,4.3,4.4,5.5l4.7,0.3c0,0,1.3-3.1-0.6-6.2c-1.6-2.7-4.4-3.6-8.6-3.6
	c-4.2,0-10.3,2.5-14.5,6.9h-8.9l-0.9,3l2,0l-7.8,9.1H76l0-9.2l2.8-0.1l0.6-2.7h-12l2.7-6.8H62l-1.1,3.3l2.3,0l-1.7,5
	c0,0-1.5-1.8-4.8-1.8c-5.6-0.1-10.2,3.7-11.9,7.2c-1.1,2.2-2,5.2-1.6,7.6h-4.8l3.6-8.7c1.6-3.8-1.2-6.2-3.5-6.4
	c-2.9-0.3-5.2,0.3-8.1,2.7V9.3l0.6-1.9H20.7l-1.2,2.9h5.4l-4.4,11.5l-2.8,0l-1.8,3.4h10.5l1.5-3.3l-3.2,0.1l1.6-1.5l3.4-8.2
	c1.1-0.9,2.3-1.6,4.7-2.1c1.5-0.3,2.4,1.1,1.8,2.6l-3.4,9.2h-2.3l-1.4,3.2H47c3,0.4,6.6-0.8,8.5-1.9v0.1l0.3,1.2h8.5l1.2-2.7h-3.9
	l4-9.7l-1.4-1.8l1,0h5l1,14.5c0,0.6-0.1,1.1-0.4,1.6c-0.7,1-1.7,1.5-3.5,1.8c-1.4,0.3-4.3-0.1-4.3-0.3l-1,3c1,0.6,3.3,0.8,4.3,0.7
	c3.8-0.2,5.5-1.2,8.5-4.4l13.6-14.6c-3.1,7.4-0.8,13.8,7.9,13.8c4.8,0,8.9-2.7,8.9-2.7l-0.6,2.2h4.9l3-7.3l-1.5-1.9h4.3h0
	c-2.6,6.1,0.8,9.5,6.6,9.5C127.7,26.1,133.9,22.7,136.4,16.6z M58.4,16.1c-1.3,3-3.7,6.8-7.5,6.8c-3.5,0-2.7-3.3-1.5-6.1
	c1.2-2.9,3.3-6.8,7-6.8C60,10.1,59.7,13.3,58.4,16.1z M130.6,16.5c-1.3,2.7-3.7,6.3-7.7,6.3c-3.9,0-2.9-3.7-1.6-6.3
	c1.3-2.7,3.7-6.3,7.7-6.3C132.9,10.2,131.9,13.8,130.6,16.5z M9.8,21.9H15l-1.9,3.2H0.6l1.6-3.2h3.5l6.2-15.8l2.1-2H9.3l1.6-3.4
	h12.5l-2,3.4h-2.8l-6.3,15.4L10,21.8L9.8,21.9z M133,30c0,0.6-0.7,1.5-1.8,1.5c-0.5,0-0.9-0.1-1.3-0.3c0,0,0,0,0-0.1l0.3-1.1h0.2
	c-0.1,0.9,0.3,1.2,0.8,1.2c0.5,0,1.1-0.4,1.1-1.1c0-0.4-0.2-0.9-0.7-1.4c-0.5-0.6-0.8-1-0.7-1.5c0.1-0.8,0.9-1.5,1.6-1.5
	c0.3,0,0.7,0,1.1,0.1c0,0,0.1,0.1,0,0.1l-0.3,1h-0.2c0.1-0.7-0.2-1-0.7-1c-0.4,0-0.9,0.3-0.9,0.9c0,0.5,0.3,0.8,0.9,1.5
	C133,29,133,29.5,133,30z M140.4,25.8l-0.1,0.2h-0.2c-0.2,0-0.6,0.2-0.7,0.8l-0.9,3.7c-0.2,0.6-0.1,0.5,0.5,0.6l-0.1,0.2h-2l0.1-0.2
	c0.6-0.1,0.6,0,0.8-0.6l0.9-3.6h0l-2.8,4.4h-0.2c-0.3-1.4-0.5-2.7-0.8-4.1h0l-0.8,3.2c-0.1,0.5,0,0.6,0.6,0.7l-0.1,0.2H133l0-0.2
	c0.5,0,0.7-0.1,0.8-0.6l1-3.8c-0.1-0.5-0.4-0.7-0.6-0.7h-0.1l0.1-0.2h1.2c0.3,1.5,0.6,3,0.9,4.5l2.9-4.5H140.4z"/>
</svg>
